<svg width="1024" height="753" viewBox="0 0 1024 753" fill="none" xmlns="http://www.w3.org/2000/svg">
<g clip-path="url(#clip0_122_130)">
<rect width="1024" height="753" fill="#121214"/>
<g opacity="0.2" filter="url(#filter0_f_122_130)">
<ellipse cx="521.5" cy="27" rx="670.5" ry="350" fill="#338AF3"/>
</g>
<path d="M42.0349 263C43.5302 263 44.6622 263.63 45.4308 264.891C46.2134 266.138 46.6047 267.953 46.6047 270.336C46.6047 272.719 46.2134 274.541 45.4308 275.802C44.6622 277.063 43.5302 277.693 42.0349 277.693C40.5536 277.693 39.4216 277.063 38.639 275.802C37.8564 274.541 37.4651 272.719 37.4651 270.336C37.4651 267.967 37.8564 266.152 38.639 264.891C39.4216 263.63 40.5536 263 42.0349 263ZM38.9534 270.336C38.9534 272.026 39.1072 273.35 39.4146 274.306L44.0683 265.099C43.5791 264.448 42.9013 264.122 42.0349 264.122C41.0706 264.122 40.316 264.635 39.771 265.66C39.2259 266.672 38.9534 268.23 38.9534 270.336ZM42.0349 276.55C43.0131 276.55 43.7748 276.044 44.3198 275.033C44.8648 274.008 45.1373 272.442 45.1373 270.336C45.1373 268.549 44.9627 267.163 44.6133 266.18L39.9596 275.469C40.4627 276.19 41.1545 276.55 42.0349 276.55Z" fill="url(#paint0_linear_122_130)" fill-opacity="0.6"/>
<path d="M43.2926 300.135H46.3741V301.236H38.3874V300.135H41.9511V288.455L38.5551 290.471L37.9682 289.536L42.1607 286.959H43.2926V300.135Z" fill="url(#paint1_linear_122_130)" fill-opacity="0.6"/>
<path d="M42.0349 310.502C43.5302 310.502 44.6622 311.133 45.4308 312.393C46.2134 313.64 46.6047 315.455 46.6047 317.838C46.6047 320.221 46.2134 322.043 45.4308 323.304C44.6622 324.565 43.5302 325.195 42.0349 325.195C40.5536 325.195 39.4216 324.565 38.639 323.304C37.8564 322.043 37.4651 320.221 37.4651 317.838C37.4651 315.469 37.8564 313.654 38.639 312.393C39.4216 311.133 40.5536 310.502 42.0349 310.502ZM38.9534 317.838C38.9534 319.529 39.1072 320.852 39.4146 321.808L44.0683 312.601C43.5791 311.95 42.9013 311.624 42.0349 311.624C41.0706 311.624 40.316 312.137 39.771 313.162C39.2259 314.174 38.9534 315.732 38.9534 317.838ZM42.0349 324.052C43.0131 324.052 43.7748 323.546 44.3198 322.535C44.8648 321.51 45.1373 319.944 45.1373 317.838C45.1373 316.051 44.9627 314.665 44.6133 313.682L39.9596 322.971C40.4627 323.692 41.1545 324.052 42.0349 324.052Z" fill="url(#paint2_linear_122_130)" fill-opacity="0.6"/>
<path d="M43.2926 347.637H46.3741V348.738H38.3874V347.637H41.9511V335.957L38.5551 337.973L37.9682 337.038L42.1607 334.461H43.2926V347.637Z" fill="url(#paint3_linear_122_130)" fill-opacity="0.6"/>
<path d="M43.2926 371.388H46.3741V372.489H38.3874V371.388H41.9511V359.708L38.5551 361.724L37.9682 360.789L42.1607 358.212H43.2926V371.388Z" fill="url(#paint4_linear_122_130)" fill-opacity="0.6"/>
<path d="M42.0349 381.755C43.5302 381.755 44.6622 382.386 45.4308 383.646C46.2134 384.893 46.6047 386.708 46.6047 389.091C46.6047 391.474 46.2134 393.296 45.4308 394.557C44.6622 395.818 43.5302 396.448 42.0349 396.448C40.5536 396.448 39.4216 395.818 38.639 394.557C37.8564 393.296 37.4651 391.474 37.4651 389.091C37.4651 386.722 37.8564 384.907 38.639 383.646C39.4216 382.386 40.5536 381.755 42.0349 381.755ZM38.9534 389.091C38.9534 390.782 39.1072 392.105 39.4146 393.061L44.0683 383.854C43.5791 383.203 42.9013 382.878 42.0349 382.878C41.0706 382.878 40.316 383.39 39.771 384.415C39.2259 385.427 38.9534 386.985 38.9534 389.091ZM42.0349 395.305C43.0131 395.305 43.7748 394.8 44.3198 393.788C44.8648 392.763 45.1373 391.197 45.1373 389.091C45.1373 387.304 44.9627 385.919 44.6133 384.935L39.9596 394.225C40.4627 394.945 41.1545 395.305 42.0349 395.305Z" fill="url(#paint5_linear_122_130)" fill-opacity="0.6"/>
<path d="M43.2926 418.89H46.3741V419.992H38.3874V418.89H41.9511V407.21L38.5551 409.226L37.9682 408.291L42.1607 405.714H43.2926V418.89Z" fill="url(#paint6_linear_122_130)" fill-opacity="0.6"/>
<path d="M42.0349 429.257C43.5302 429.257 44.6622 429.888 45.4308 431.149C46.2134 432.396 46.6047 434.211 46.6047 436.594C46.6047 438.977 46.2134 440.798 45.4308 442.059C44.6622 443.32 43.5302 443.95 42.0349 443.95C40.5536 443.95 39.4216 443.32 38.639 442.059C37.8564 440.798 37.4651 438.977 37.4651 436.594C37.4651 434.224 37.8564 432.409 38.639 431.149C39.4216 429.888 40.5536 429.257 42.0349 429.257ZM38.9534 436.594C38.9534 438.284 39.1072 439.607 39.4146 440.563L44.0683 431.356C43.5791 430.705 42.9013 430.38 42.0349 430.38C41.0706 430.38 40.316 430.892 39.771 431.918C39.2259 432.929 38.9534 434.488 38.9534 436.594ZM42.0349 442.807C43.0131 442.807 43.7748 442.302 44.3198 441.29C44.8648 440.265 45.1373 438.699 45.1373 436.594C45.1373 434.806 44.9627 433.421 44.6133 432.437L39.9596 441.727C40.4627 442.447 41.1545 442.807 42.0349 442.807Z" fill="url(#paint7_linear_122_130)" fill-opacity="0.6"/>
<path d="M42.0349 453.008C43.5302 453.008 44.6622 453.639 45.4308 454.9C46.2134 456.147 46.6047 457.962 46.6047 460.345C46.6047 462.728 46.2134 464.549 45.4308 465.81C44.6622 467.071 43.5302 467.701 42.0349 467.701C40.5536 467.701 39.4216 467.071 38.639 465.81C37.8564 464.549 37.4651 462.728 37.4651 460.345C37.4651 457.975 37.8564 456.16 38.639 454.9C39.4216 453.639 40.5536 453.008 42.0349 453.008ZM38.9534 460.345C38.9534 462.035 39.1072 463.358 39.4146 464.314L44.0683 455.107C43.5791 454.456 42.9013 454.131 42.0349 454.131C41.0706 454.131 40.316 454.643 39.771 455.669C39.2259 456.68 38.9534 458.239 38.9534 460.345ZM42.0349 466.558C43.0131 466.558 43.7748 466.053 44.3198 465.041C44.8648 464.016 45.1373 462.451 45.1373 460.345C45.1373 458.557 44.9627 457.172 44.6133 456.188L39.9596 465.478C40.4627 466.198 41.1545 466.558 42.0349 466.558Z" fill="url(#paint8_linear_122_130)" fill-opacity="0.6"/>
<path d="M43.2926 490.143H46.3741V491.245H38.3874V490.143H41.9511V478.464L38.5551 480.48L37.9682 479.544L42.1607 476.967H43.2926V490.143Z" fill="url(#paint9_linear_122_130)" fill-opacity="0.6"/>
<path d="M42.0349 500.511C43.5302 500.511 44.6622 501.141 45.4308 502.402C46.2134 503.649 46.6047 505.464 46.6047 507.847C46.6047 510.23 46.2134 512.052 45.4308 513.312C44.6622 514.573 43.5302 515.204 42.0349 515.204C40.5536 515.204 39.4216 514.573 38.639 513.312C37.8564 512.052 37.4651 510.23 37.4651 507.847C37.4651 505.478 37.8564 503.663 38.639 502.402C39.4216 501.141 40.5536 500.511 42.0349 500.511ZM38.9534 507.847C38.9534 509.537 39.1072 510.86 39.4146 511.816L44.0683 502.61C43.5791 501.958 42.9013 501.633 42.0349 501.633C41.0706 501.633 40.316 502.145 39.771 503.171C39.2259 504.182 38.9534 505.741 38.9534 507.847ZM42.0349 514.061C43.0131 514.061 43.7748 513.555 44.3198 512.543C44.8648 511.518 45.1373 509.953 45.1373 507.847C45.1373 506.059 44.9627 504.674 44.6133 503.69L39.9596 512.98C40.4627 513.7 41.1545 514.061 42.0349 514.061Z" fill="url(#paint10_linear_122_130)" fill-opacity="0.6"/>
<path d="M43.2926 537.645H46.3741V538.747H38.3874V537.645H41.9511V525.966L38.5551 527.982L37.9682 527.046L42.1607 524.469H43.2926V537.645Z" fill="url(#paint11_linear_122_130)" fill-opacity="0.6"/>
<path d="M43.2926 561.396H46.3741V562.498H38.3874V561.396H41.9511V549.717L38.5551 551.733L37.9682 550.798L42.1607 548.221H43.2926V561.396Z" fill="url(#paint12_linear_122_130)" fill-opacity="0.6"/>
<path d="M80.9651 310.502C82.4604 310.502 83.5924 311.133 84.361 312.393C85.1436 313.64 85.5349 315.455 85.5349 317.838C85.5349 320.221 85.1436 322.043 84.361 323.304C83.5924 324.565 82.4604 325.195 80.9651 325.195C79.4838 325.195 78.3518 324.565 77.5692 323.304C76.7866 322.043 76.3953 320.221 76.3953 317.838C76.3953 315.469 76.7866 313.654 77.5692 312.393C78.3518 311.133 79.4838 310.502 80.9651 310.502ZM77.8836 317.838C77.8836 319.529 78.0374 320.852 78.3448 321.808L82.9985 312.601C82.5093 311.95 81.8315 311.624 80.9651 311.624C80.0008 311.624 79.2462 312.137 78.7012 313.162C78.1561 314.174 77.8836 315.732 77.8836 317.838ZM80.9651 324.052C81.9433 324.052 82.705 323.546 83.25 322.535C83.795 321.51 84.0675 319.944 84.0675 317.838C84.0675 316.051 83.8928 314.665 83.5435 313.682L78.8898 322.971C79.3929 323.692 80.0847 324.052 80.9651 324.052Z" fill="url(#paint13_linear_122_130)" fill-opacity="0.6"/>
<path d="M82.2228 347.637H85.3043V348.738H77.3176V347.637H80.8812V335.957L77.4853 337.973L76.8984 337.038L81.0909 334.461H82.2228V347.637Z" fill="url(#paint14_linear_122_130)" fill-opacity="0.6"/>
<path d="M80.9651 358.004C82.4604 358.004 83.5924 358.635 84.361 359.895C85.1436 361.142 85.5349 362.957 85.5349 365.34C85.5349 367.723 85.1436 369.545 84.361 370.806C83.5924 372.067 82.4604 372.697 80.9651 372.697C79.4838 372.697 78.3518 372.067 77.5692 370.806C76.7866 369.545 76.3953 367.723 76.3953 365.34C76.3953 362.971 76.7866 361.156 77.5692 359.895C78.3518 358.635 79.4838 358.004 80.9651 358.004ZM77.8836 365.34C77.8836 367.031 78.0374 368.354 78.3448 369.31L82.9985 360.103C82.5093 359.452 81.8315 359.126 80.9651 359.126C80.0008 359.126 79.2462 359.639 78.7012 360.664C78.1561 361.676 77.8836 363.234 77.8836 365.34ZM80.9651 371.554C81.9433 371.554 82.705 371.049 83.25 370.037C83.795 369.012 84.0675 367.446 84.0675 365.34C84.0675 363.553 83.8928 362.168 83.5435 361.184L78.8898 370.474C79.3929 371.194 80.0847 371.554 80.9651 371.554Z" fill="url(#paint15_linear_122_130)" fill-opacity="0.6"/>
<path d="M80.9651 381.755C82.4604 381.755 83.5924 382.386 84.361 383.646C85.1436 384.893 85.5349 386.708 85.5349 389.091C85.5349 391.474 85.1436 393.296 84.361 394.557C83.5924 395.818 82.4604 396.448 80.9651 396.448C79.4838 396.448 78.3518 395.818 77.5692 394.557C76.7866 393.296 76.3953 391.474 76.3953 389.091C76.3953 386.722 76.7866 384.907 77.5692 383.646C78.3518 382.386 79.4838 381.755 80.9651 381.755ZM77.8836 389.091C77.8836 390.782 78.0374 392.105 78.3448 393.061L82.9985 383.854C82.5093 383.203 81.8315 382.878 80.9651 382.878C80.0008 382.878 79.2462 383.39 78.7012 384.415C78.1561 385.427 77.8836 386.985 77.8836 389.091ZM80.9651 395.305C81.9433 395.305 82.705 394.8 83.25 393.788C83.795 392.763 84.0675 391.197 84.0675 389.091C84.0675 387.304 83.8928 385.919 83.5435 384.935L78.8898 394.225C79.3929 394.945 80.0847 395.305 80.9651 395.305Z" fill="url(#paint16_linear_122_130)" fill-opacity="0.6"/>
<path d="M82.2228 418.89H85.3043V419.992H77.3176V418.89H80.8812V407.21L77.4853 409.226L76.8984 408.291L81.0909 405.714H82.2228V418.89Z" fill="url(#paint17_linear_122_130)" fill-opacity="0.6"/>
<path d="M80.9651 429.257C82.4604 429.257 83.5924 429.888 84.361 431.149C85.1436 432.396 85.5349 434.211 85.5349 436.594C85.5349 438.977 85.1436 440.798 84.361 442.059C83.5924 443.32 82.4604 443.95 80.9651 443.95C79.4838 443.95 78.3518 443.32 77.5692 442.059C76.7866 440.798 76.3953 438.977 76.3953 436.594C76.3953 434.224 76.7866 432.409 77.5692 431.149C78.3518 429.888 79.4838 429.257 80.9651 429.257ZM77.8836 436.594C77.8836 438.284 78.0374 439.607 78.3448 440.563L82.9985 431.356C82.5093 430.705 81.8315 430.38 80.9651 430.38C80.0008 430.38 79.2462 430.892 78.7012 431.918C78.1561 432.929 77.8836 434.488 77.8836 436.594ZM80.9651 442.807C81.9433 442.807 82.705 442.302 83.25 441.29C83.795 440.265 84.0675 438.699 84.0675 436.594C84.0675 434.806 83.8928 433.421 83.5435 432.437L78.8898 441.727C79.3929 442.447 80.0847 442.807 80.9651 442.807Z" fill="url(#paint18_linear_122_130)" fill-opacity="0.6"/>
<path d="M82.2228 466.392H85.3043V467.494H77.3176V466.392H80.8812V454.713L77.4853 456.728L76.8984 455.793L81.0909 453.216H82.2228V466.392Z" fill="url(#paint19_linear_122_130)" fill-opacity="0.6"/>
<path d="M80.9651 476.76C82.4604 476.76 83.5924 477.39 84.361 478.651C85.1436 479.898 85.5349 481.713 85.5349 484.096C85.5349 486.479 85.1436 488.301 84.361 489.561C83.5924 490.822 82.4604 491.453 80.9651 491.453C79.4838 491.453 78.3518 490.822 77.5692 489.561C76.7866 488.301 76.3953 486.479 76.3953 484.096C76.3953 481.726 76.7866 479.911 77.5692 478.651C78.3518 477.39 79.4838 476.76 80.9651 476.76ZM77.8836 484.096C77.8836 485.786 78.0374 487.109 78.3448 488.065L82.9985 478.859C82.5093 478.207 81.8315 477.882 80.9651 477.882C80.0008 477.882 79.2462 478.394 78.7012 479.42C78.1561 480.431 77.8836 481.99 77.8836 484.096ZM80.9651 490.31C81.9433 490.31 82.705 489.804 83.25 488.792C83.795 487.767 84.0675 486.202 84.0675 484.096C84.0675 482.308 83.8928 480.923 83.5435 479.939L78.8898 489.229C79.3929 489.949 80.0847 490.31 80.9651 490.31Z" fill="url(#paint20_linear_122_130)" fill-opacity="0.6"/>
<path d="M80.9651 500.511C82.4604 500.511 83.5924 501.141 84.361 502.402C85.1436 503.649 85.5349 505.464 85.5349 507.847C85.5349 510.23 85.1436 512.052 84.361 513.312C83.5924 514.573 82.4604 515.204 80.9651 515.204C79.4838 515.204 78.3518 514.573 77.5692 513.312C76.7866 512.052 76.3953 510.23 76.3953 507.847C76.3953 505.478 76.7866 503.663 77.5692 502.402C78.3518 501.141 79.4838 500.511 80.9651 500.511ZM77.8836 507.847C77.8836 509.537 78.0374 510.86 78.3448 511.816L82.9985 502.61C82.5093 501.958 81.8315 501.633 80.9651 501.633C80.0008 501.633 79.2462 502.145 78.7012 503.171C78.1561 504.182 77.8836 505.741 77.8836 507.847ZM80.9651 514.061C81.9433 514.061 82.705 513.555 83.25 512.543C83.795 511.518 84.0675 509.953 84.0675 507.847C84.0675 506.059 83.8928 504.674 83.5435 503.69L78.8898 512.98C79.3929 513.7 80.0847 514.061 80.9651 514.061Z" fill="url(#paint21_linear_122_130)" fill-opacity="0.6"/>
<path d="M82.2228 537.645H85.3043V538.747H77.3176V537.645H80.8812V525.966L77.4853 527.982L76.8984 527.046L81.0909 524.469H82.2228V537.645Z" fill="url(#paint22_linear_122_130)" fill-opacity="0.6"/>
<path d="M80.9651 548.013C82.4604 548.013 83.5924 548.643 84.361 549.904C85.1436 551.151 85.5349 552.966 85.5349 555.349C85.5349 557.732 85.1436 559.554 84.361 560.815C83.5924 562.075 82.4604 562.706 80.9651 562.706C79.4838 562.706 78.3518 562.075 77.5692 560.815C76.7866 559.554 76.3953 557.732 76.3953 555.349C76.3953 552.98 76.7866 551.165 77.5692 549.904C78.3518 548.643 79.4838 548.013 80.9651 548.013ZM77.8836 555.349C77.8836 557.039 78.0374 558.362 78.3448 559.318L82.9985 550.112C82.5093 549.461 81.8315 549.135 80.9651 549.135C80.0008 549.135 79.2462 549.648 78.7012 550.673C78.1561 551.684 77.8836 553.243 77.8836 555.349ZM80.9651 561.563C81.9433 561.563 82.705 561.057 83.25 560.046C83.795 559.02 84.0675 557.455 84.0675 555.349C84.0675 553.562 83.8928 552.176 83.5435 551.192L78.8898 560.482C79.3929 561.202 80.0847 561.563 80.9651 561.563Z" fill="url(#paint23_linear_122_130)" fill-opacity="0.6"/>
<path d="M82.2228 585.148H85.3043V586.249H77.3176V585.148H80.8812V573.468L77.4853 575.484L76.8984 574.549L81.0909 571.972H82.2228V585.148Z" fill="url(#paint24_linear_122_130)" fill-opacity="0.6"/>
<path d="M82.2228 608.899H85.3043V610H77.3176V608.899H80.8812V597.219L77.4853 599.235L76.8984 598.3L81.0909 595.723H82.2228V608.899Z" fill="url(#paint25_linear_122_130)" fill-opacity="0.6"/>
<path d="M22.5698 334.253C24.0651 334.253 25.1971 334.884 25.9657 336.144C26.7483 337.391 27.1396 339.206 27.1396 341.589C27.1396 343.972 26.7483 345.794 25.9657 347.055C25.1971 348.316 24.0651 348.946 22.5698 348.946C21.0885 348.946 19.9565 348.316 19.1739 347.055C18.3913 345.794 18 343.972 18 341.589C18 339.22 18.3913 337.405 19.1739 336.144C19.9565 334.884 21.0885 334.253 22.5698 334.253ZM19.4883 341.589C19.4883 343.28 19.6421 344.603 19.9495 345.559L24.6032 336.352C24.114 335.701 23.4363 335.375 22.5698 335.375C21.6055 335.375 20.8509 335.888 20.3059 336.913C19.7608 337.925 19.4883 339.483 19.4883 341.589ZM22.5698 347.803C23.5481 347.803 24.3097 347.297 24.8547 346.286C25.3997 345.261 25.6722 343.695 25.6722 341.589C25.6722 339.802 25.4976 338.417 25.1482 337.433L20.4945 346.722C20.9976 347.443 21.6894 347.803 22.5698 347.803Z" fill="url(#paint26_linear_122_130)" fill-opacity="0.6"/>
<path d="M22.5698 358.004C24.0651 358.004 25.1971 358.635 25.9657 359.895C26.7483 361.142 27.1396 362.957 27.1396 365.34C27.1396 367.723 26.7483 369.545 25.9657 370.806C25.1971 372.067 24.0651 372.697 22.5698 372.697C21.0885 372.697 19.9565 372.067 19.1739 370.806C18.3913 369.545 18 367.723 18 365.34C18 362.971 18.3913 361.156 19.1739 359.895C19.9565 358.635 21.0885 358.004 22.5698 358.004ZM19.4883 365.34C19.4883 367.031 19.6421 368.354 19.9495 369.31L24.6032 360.103C24.114 359.452 23.4363 359.126 22.5698 359.126C21.6055 359.126 20.8509 359.639 20.3059 360.664C19.7608 361.676 19.4883 363.234 19.4883 365.34ZM22.5698 371.554C23.5481 371.554 24.3097 371.049 24.8547 370.037C25.3997 369.012 25.6722 367.446 25.6722 365.34C25.6722 363.553 25.4976 362.168 25.1482 361.184L20.4945 370.474C20.9976 371.194 21.6894 371.554 22.5698 371.554Z" fill="url(#paint27_linear_122_130)" fill-opacity="0.6"/>
<path d="M23.8276 395.139H26.909V396.24H18.9223V395.139H22.486V383.459L19.09 385.475L18.5031 384.54L22.6956 381.963H23.8276V395.139Z" fill="url(#paint28_linear_122_130)" fill-opacity="0.6"/>
<path d="M22.5698 405.506C24.0651 405.506 25.1971 406.137 25.9657 407.398C26.7483 408.644 27.1396 410.459 27.1396 412.842C27.1396 415.225 26.7483 417.047 25.9657 418.308C25.1971 419.569 24.0651 420.199 22.5698 420.199C21.0885 420.199 19.9565 419.569 19.1739 418.308C18.3913 417.047 18 415.225 18 412.842C18 410.473 18.3913 408.658 19.1739 407.398C19.9565 406.137 21.0885 405.506 22.5698 405.506ZM19.4883 412.842C19.4883 414.533 19.6421 415.856 19.9495 416.812L24.6032 407.605C24.114 406.954 23.4363 406.629 22.5698 406.629C21.6055 406.629 20.8509 407.141 20.3059 408.166C19.7608 409.178 19.4883 410.737 19.4883 412.842ZM22.5698 419.056C23.5481 419.056 24.3097 418.551 24.8547 417.539C25.3997 416.514 25.6722 414.948 25.6722 412.842C25.6722 411.055 25.4976 409.67 25.1482 408.686L20.4945 417.976C20.9976 418.696 21.6894 419.056 22.5698 419.056Z" fill="url(#paint29_linear_122_130)" fill-opacity="0.6"/>
<path d="M23.8276 442.641H26.909V443.743H18.9223V442.641H22.486V430.962L19.09 432.977L18.5031 432.042L22.6956 429.465H23.8276V442.641Z" fill="url(#paint30_linear_122_130)" fill-opacity="0.6"/>
<path d="M23.8276 466.392H26.909V467.494H18.9223V466.392H22.486V454.713L19.09 456.728L18.5031 455.793L22.6956 453.216H23.8276V466.392Z" fill="url(#paint31_linear_122_130)" fill-opacity="0.6"/>
<path d="M62.7577 300.135H65.8392V301.236H57.8525V300.135H61.4162V288.455L58.0202 290.471L57.4333 289.536L61.6258 286.959H62.7577V300.135Z" fill="url(#paint32_linear_122_130)" fill-opacity="0.6"/>
<path d="M61.5 310.502C62.9953 310.502 64.1273 311.133 64.8959 312.393C65.6785 313.64 66.0698 315.455 66.0698 317.838C66.0698 320.221 65.6785 322.043 64.8959 323.304C64.1273 324.565 62.9953 325.195 61.5 325.195C60.0187 325.195 58.8867 324.565 58.1041 323.304C57.3215 322.043 56.9302 320.221 56.9302 317.838C56.9302 315.469 57.3215 313.654 58.1041 312.393C58.8867 311.133 60.0187 310.502 61.5 310.502ZM58.4185 317.838C58.4185 319.529 58.5723 320.852 58.8797 321.808L63.5334 312.601C63.0442 311.95 62.3664 311.624 61.5 311.624C60.5357 311.624 59.7811 312.137 59.2361 313.162C58.691 314.174 58.4185 315.732 58.4185 317.838ZM61.5 324.052C62.4782 324.052 63.2399 323.546 63.7849 322.535C64.3299 321.51 64.6024 319.944 64.6024 317.838C64.6024 316.051 64.4277 314.665 64.0784 313.682L59.4247 322.971C59.9278 323.692 60.6196 324.052 61.5 324.052Z" fill="url(#paint33_linear_122_130)" fill-opacity="0.6"/>
<path d="M62.7577 347.637H65.8392V348.738H57.8525V347.637H61.4162V335.957L58.0202 337.973L57.4333 337.038L61.6258 334.461H62.7577V347.637Z" fill="url(#paint34_linear_122_130)" fill-opacity="0.6"/>
<path d="M62.7577 371.388H65.8392V372.489H57.8525V371.388H61.4162V359.708L58.0202 361.724L57.4333 360.789L61.6258 358.212H62.7577V371.388Z" fill="url(#paint35_linear_122_130)" fill-opacity="0.6"/>
<path d="M61.5 381.755C62.9953 381.755 64.1273 382.386 64.8959 383.646C65.6785 384.893 66.0698 386.708 66.0698 389.091C66.0698 391.474 65.6785 393.296 64.8959 394.557C64.1273 395.818 62.9953 396.448 61.5 396.448C60.0187 396.448 58.8867 395.818 58.1041 394.557C57.3215 393.296 56.9302 391.474 56.9302 389.091C56.9302 386.722 57.3215 384.907 58.1041 383.646C58.8867 382.386 60.0187 381.755 61.5 381.755ZM58.4185 389.091C58.4185 390.782 58.5723 392.105 58.8797 393.061L63.5334 383.854C63.0442 383.203 62.3664 382.878 61.5 382.878C60.5357 382.878 59.7811 383.39 59.2361 384.415C58.691 385.427 58.4185 386.985 58.4185 389.091ZM61.5 395.305C62.4782 395.305 63.2399 394.8 63.7849 393.788C64.3299 392.763 64.6024 391.197 64.6024 389.091C64.6024 387.304 64.4277 385.919 64.0784 384.935L59.4247 394.225C59.9278 394.945 60.6196 395.305 61.5 395.305Z" fill="url(#paint36_linear_122_130)" fill-opacity="0.6"/>
<path d="M62.7577 418.89H65.8392V419.992H57.8525V418.89H61.4162V407.21L58.0202 409.226L57.4333 408.291L61.6258 405.714H62.7577V418.89Z" fill="url(#paint37_linear_122_130)" fill-opacity="0.6"/>
<path d="M62.7577 442.641H65.8392V443.743H57.8525V442.641H61.4162V430.962L58.0202 432.977L57.4333 432.042L61.6258 429.465H62.7577V442.641Z" fill="url(#paint38_linear_122_130)" fill-opacity="0.6"/>
<path d="M61.5 453.008C62.9953 453.008 64.1273 453.639 64.8959 454.9C65.6785 456.147 66.0698 457.962 66.0698 460.345C66.0698 462.728 65.6785 464.549 64.8959 465.81C64.1273 467.071 62.9953 467.701 61.5 467.701C60.0187 467.701 58.8867 467.071 58.1041 465.81C57.3215 464.549 56.9302 462.728 56.9302 460.345C56.9302 457.975 57.3215 456.16 58.1041 454.9C58.8867 453.639 60.0187 453.008 61.5 453.008ZM58.4185 460.345C58.4185 462.035 58.5723 463.358 58.8797 464.314L63.5334 455.107C63.0442 454.456 62.3664 454.131 61.5 454.131C60.5357 454.131 59.7811 454.643 59.2361 455.669C58.691 456.68 58.4185 458.239 58.4185 460.345ZM61.5 466.558C62.4782 466.558 63.2399 466.053 63.7849 465.041C64.3299 464.016 64.6024 462.451 64.6024 460.345C64.6024 458.557 64.4277 457.172 64.0784 456.188L59.4247 465.478C59.9278 466.198 60.6196 466.558 61.5 466.558Z" fill="url(#paint39_linear_122_130)" fill-opacity="0.6"/>
<path d="M62.7577 490.143H65.8392V491.245H57.8525V490.143H61.4162V478.464L58.0202 480.48L57.4333 479.544L61.6258 476.967H62.7577V490.143Z" fill="url(#paint40_linear_122_130)" fill-opacity="0.6"/>
<path d="M61.5 500.511C62.9953 500.511 64.1273 501.141 64.8959 502.402C65.6785 503.649 66.0698 505.464 66.0698 507.847C66.0698 510.23 65.6785 512.052 64.8959 513.312C64.1273 514.573 62.9953 515.204 61.5 515.204C60.0187 515.204 58.8867 514.573 58.1041 513.312C57.3215 512.052 56.9302 510.23 56.9302 507.847C56.9302 505.478 57.3215 503.663 58.1041 502.402C58.8867 501.141 60.0187 500.511 61.5 500.511ZM58.4185 507.847C58.4185 509.537 58.5723 510.86 58.8797 511.816L63.5334 502.61C63.0442 501.958 62.3664 501.633 61.5 501.633C60.5357 501.633 59.7811 502.145 59.2361 503.171C58.691 504.182 58.4185 505.741 58.4185 507.847ZM61.5 514.061C62.4782 514.061 63.2399 513.555 63.7849 512.543C64.3299 511.518 64.6024 509.953 64.6024 507.847C64.6024 506.059 64.4277 504.674 64.0784 503.69L59.4247 512.98C59.9278 513.7 60.6196 514.061 61.5 514.061Z" fill="url(#paint41_linear_122_130)" fill-opacity="0.6"/>
<path d="M100.43 286.751C101.926 286.751 103.057 287.381 103.826 288.642C104.609 289.889 105 291.704 105 294.087C105 296.47 104.609 298.292 103.826 299.553C103.057 300.814 101.926 301.444 100.43 301.444C98.9489 301.444 97.8169 300.814 97.0343 299.553C96.2517 298.292 95.8604 296.47 95.8604 294.087C95.8604 291.718 96.2517 289.903 97.0343 288.642C97.8169 287.381 98.9489 286.751 100.43 286.751ZM97.3487 294.087C97.3487 295.777 97.5024 297.101 97.8099 298.057L102.464 288.85C101.974 288.199 101.297 287.873 100.43 287.873C99.4659 287.873 98.7113 288.386 98.1663 289.411C97.6212 290.423 97.3487 291.981 97.3487 294.087ZM100.43 300.301C101.408 300.301 102.17 299.795 102.715 298.784C103.26 297.759 103.533 296.193 103.533 294.087C103.533 292.3 103.358 290.914 103.009 289.931L98.3549 299.22C98.858 299.941 99.5498 300.301 100.43 300.301Z" fill="url(#paint42_linear_122_130)" fill-opacity="0.6"/>
<path d="M101.688 323.886H104.769V324.987H96.7827V323.886H100.346V312.206L96.9504 314.222L96.3635 313.287L100.556 310.71H101.688V323.886Z" fill="url(#paint43_linear_122_130)" fill-opacity="0.6"/>
<path d="M101.688 347.637H104.769V348.738H96.7827V347.637H100.346V335.957L96.9504 337.973L96.3635 337.038L100.556 334.461H101.688V347.637Z" fill="url(#paint44_linear_122_130)" fill-opacity="0.6"/>
<path d="M100.43 358.004C101.926 358.004 103.057 358.635 103.826 359.895C104.609 361.142 105 362.957 105 365.34C105 367.723 104.609 369.545 103.826 370.806C103.057 372.067 101.926 372.697 100.43 372.697C98.9489 372.697 97.8169 372.067 97.0343 370.806C96.2517 369.545 95.8604 367.723 95.8604 365.34C95.8604 362.971 96.2517 361.156 97.0343 359.895C97.8169 358.635 98.9489 358.004 100.43 358.004ZM97.3487 365.34C97.3487 367.031 97.5024 368.354 97.8099 369.31L102.464 360.103C101.974 359.452 101.297 359.126 100.43 359.126C99.4659 359.126 98.7113 359.639 98.1663 360.664C97.6212 361.676 97.3487 363.234 97.3487 365.34ZM100.43 371.554C101.408 371.554 102.17 371.049 102.715 370.037C103.26 369.012 103.533 367.446 103.533 365.34C103.533 363.553 103.358 362.168 103.009 361.184L98.3549 370.474C98.858 371.194 99.5498 371.554 100.43 371.554Z" fill="url(#paint45_linear_122_130)" fill-opacity="0.6"/>
<path d="M100.43 381.755C101.926 381.755 103.057 382.386 103.826 383.646C104.609 384.893 105 386.708 105 389.091C105 391.474 104.609 393.296 103.826 394.557C103.057 395.818 101.926 396.448 100.43 396.448C98.9489 396.448 97.8169 395.818 97.0343 394.557C96.2517 393.296 95.8604 391.474 95.8604 389.091C95.8604 386.722 96.2517 384.907 97.0343 383.646C97.8169 382.386 98.9489 381.755 100.43 381.755ZM97.3487 389.091C97.3487 390.782 97.5024 392.105 97.8099 393.061L102.464 383.854C101.974 383.203 101.297 382.878 100.43 382.878C99.4659 382.878 98.7113 383.39 98.1663 384.415C97.6212 385.427 97.3487 386.985 97.3487 389.091ZM100.43 395.305C101.408 395.305 102.17 394.8 102.715 393.788C103.26 392.763 103.533 391.197 103.533 389.091C103.533 387.304 103.358 385.919 103.009 384.935L98.3549 394.225C98.858 394.945 99.5498 395.305 100.43 395.305Z" fill="url(#paint46_linear_122_130)" fill-opacity="0.6"/>
<g opacity="0.6">
<path d="M928.93 -37C930.356 -37 931.436 -36.395 932.17 -35.1851C932.916 -33.9885 933.29 -32.2468 933.29 -29.9599C933.29 -27.673 932.916 -25.9246 932.17 -24.7147C931.436 -23.5048 930.356 -22.8998 928.93 -22.8998C927.517 -22.8998 926.437 -23.5048 925.69 -24.7147C924.943 -25.9246 924.57 -27.673 924.57 -29.9599C924.57 -32.2335 924.943 -33.9752 925.69 -35.1851C926.437 -36.395 927.517 -37 928.93 -37ZM925.99 -29.9599C925.99 -28.3378 926.137 -27.068 926.43 -26.1506L930.87 -34.9857C930.403 -35.6106 929.756 -35.923 928.93 -35.923C928.01 -35.923 927.29 -35.4311 926.77 -34.4472C926.25 -33.4766 925.99 -31.9808 925.99 -29.9599ZM928.93 -23.9967C929.863 -23.9967 930.59 -24.482 931.11 -25.4526C931.63 -26.4365 931.89 -27.9389 931.89 -29.9599C931.89 -31.675 931.723 -33.0046 931.39 -33.9486L926.95 -25.0338C927.43 -24.3424 928.09 -23.9967 928.93 -23.9967Z" fill="url(#paint47_linear_122_130)"/>
<path d="M930.13 -1.36345H933.07V-0.306438H925.45V-1.36345H928.85V-12.5718L925.61 -10.6373L925.05 -11.5347L929.05 -14.0078H930.13V-1.36345Z" fill="url(#paint48_linear_122_130)"/>
<path d="M928.93 8.58561C930.356 8.58561 931.436 9.19057 932.17 10.4005C932.916 11.5971 933.29 13.3389 933.29 15.6257C933.29 17.9126 932.916 19.661 932.17 20.8709C931.436 22.0808 930.356 22.6858 928.93 22.6858C927.517 22.6858 926.437 22.0808 925.69 20.8709C924.943 19.661 924.57 17.9126 924.57 15.6257C924.57 13.3522 924.943 11.6104 925.69 10.4005C926.437 9.19057 927.517 8.58561 928.93 8.58561ZM925.99 15.6257C925.99 17.2478 926.137 18.5176 926.43 19.435L930.87 10.5999C930.403 9.97502 929.756 9.66256 928.93 9.66256C928.01 9.66256 927.29 10.1545 926.77 11.1384C926.25 12.109 925.99 13.6048 925.99 15.6257ZM928.93 21.5889C929.863 21.5889 930.59 21.1036 931.11 20.133C931.63 19.1491 931.89 17.6467 931.89 15.6257C931.89 13.9106 931.723 12.581 931.39 11.637L926.95 20.5518C927.43 21.2432 928.09 21.5889 928.93 21.5889Z" fill="url(#paint49_linear_122_130)"/>
<path d="M930.13 44.2221H933.07V45.2792H925.45V44.2221H928.85V33.0138L925.61 34.9483L925.05 34.0509L929.05 31.5778H930.13V44.2221Z" fill="url(#paint50_linear_122_130)"/>
<path d="M930.13 67.015H933.07V68.072H925.45V67.015H928.85V55.8066L925.61 57.7411L925.05 56.8437L929.05 54.3706H930.13V67.015Z" fill="url(#paint51_linear_122_130)"/>
<path d="M928.93 76.964C930.356 76.964 931.436 77.569 932.17 78.7789C932.916 79.9755 933.29 81.7173 933.29 84.0041C933.29 86.291 932.916 88.0394 932.17 89.2493C931.436 90.4593 930.356 91.0642 928.93 91.0642C927.517 91.0642 926.437 90.4593 925.69 89.2493C924.943 88.0394 924.57 86.291 924.57 84.0041C924.57 81.7306 924.943 79.9888 925.69 78.7789C926.437 77.569 927.517 76.964 928.93 76.964ZM925.99 84.0041C925.99 85.6262 926.137 86.896 926.43 87.8134L930.87 78.9783C930.403 78.3534 929.756 78.041 928.93 78.041C928.01 78.041 927.29 78.5329 926.77 79.5168C926.25 80.4874 925.99 81.9832 925.99 84.0041ZM928.93 89.9673C929.863 89.9673 930.59 89.482 931.11 88.5114C931.63 87.5275 931.89 86.0251 931.89 84.0041C931.89 82.289 931.723 80.9594 931.39 80.0154L926.95 88.9302C927.43 89.6216 928.09 89.9673 928.93 89.9673Z" fill="url(#paint52_linear_122_130)"/>
<path d="M930.13 112.601H933.07V113.658H925.45V112.601H928.85V101.392L925.61 103.327L925.05 102.429L929.05 99.9562H930.13V112.601Z" fill="url(#paint53_linear_122_130)"/>
<path d="M928.93 122.55C930.356 122.55 931.436 123.155 932.17 124.365C932.916 125.561 933.29 127.303 933.29 129.59C933.29 131.877 932.916 133.625 932.17 134.835C931.436 136.045 930.356 136.65 928.93 136.65C927.517 136.65 926.437 136.045 925.69 134.835C924.943 133.625 924.57 131.877 924.57 129.59C924.57 127.316 924.943 125.574 925.69 124.365C926.437 123.155 927.517 122.55 928.93 122.55ZM925.99 129.59C925.99 131.212 926.137 132.482 926.43 133.399L930.87 124.564C930.403 123.939 929.756 123.627 928.93 123.627C928.01 123.627 927.29 124.119 926.77 125.102C926.25 126.073 925.99 127.569 925.99 129.59ZM928.93 135.553C929.863 135.553 930.59 135.068 931.11 134.097C931.63 133.113 931.89 131.611 931.89 129.59C931.89 127.875 931.723 126.545 931.39 125.601L926.95 134.516C927.43 135.207 928.09 135.553 928.93 135.553Z" fill="url(#paint54_linear_122_130)"/>
<path d="M928.93 145.342C930.356 145.342 931.436 145.947 932.17 147.157C932.916 148.354 933.29 150.096 933.29 152.383C933.29 154.669 932.916 156.418 932.17 157.628C931.436 158.838 930.356 159.443 928.93 159.443C927.517 159.443 926.437 158.838 925.69 157.628C924.943 156.418 924.57 154.669 924.57 152.383C924.57 150.109 924.943 148.367 925.69 147.157C926.437 145.947 927.517 145.342 928.93 145.342ZM925.99 152.383C925.99 154.005 926.137 155.274 926.43 156.192L930.87 147.357C930.403 146.732 929.756 146.419 928.93 146.419C928.01 146.419 927.29 146.911 926.77 147.895C926.25 148.866 925.99 150.362 925.99 152.383ZM928.93 158.346C929.863 158.346 930.59 157.86 931.11 156.89C931.63 155.906 931.89 154.404 931.89 152.383C931.89 150.667 931.723 149.338 931.39 148.394L926.95 157.309C927.43 158 928.09 158.346 928.93 158.346Z" fill="url(#paint55_linear_122_130)"/>
<path d="M930.13 180.979H933.07V182.036H925.45V180.979H928.85V169.771L925.61 171.705L925.05 170.808L929.05 168.335H930.13V180.979Z" fill="url(#paint56_linear_122_130)"/>
<path d="M928.93 190.928C930.356 190.928 931.436 191.533 932.17 192.743C932.916 193.94 933.29 195.681 933.29 197.968C933.29 200.255 932.916 202.003 932.17 203.213C931.436 204.423 930.356 205.028 928.93 205.028C927.517 205.028 926.437 204.423 925.69 203.213C924.943 202.003 924.57 200.255 924.57 197.968C924.57 195.695 924.943 193.953 925.69 192.743C926.437 191.533 927.517 190.928 928.93 190.928ZM925.99 197.968C925.99 199.59 926.137 200.86 926.43 201.777L930.87 192.942C930.403 192.317 929.756 192.005 928.93 192.005C928.01 192.005 927.29 192.497 926.77 193.481C926.25 194.451 925.99 195.947 925.99 197.968ZM928.93 203.931C929.863 203.931 930.59 203.446 931.11 202.475C931.63 201.492 931.89 199.989 931.89 197.968C931.89 196.253 931.723 194.923 931.39 193.979L926.95 202.894C927.43 203.586 928.09 203.931 928.93 203.931Z" fill="url(#paint57_linear_122_130)"/>
<path d="M930.13 226.565H933.07V227.622H925.45V226.565H928.85V215.356L925.61 217.291L925.05 216.393L929.05 213.92H930.13V226.565Z" fill="url(#paint58_linear_122_130)"/>
<path d="M930.13 249.357H933.07V250.414H925.45V249.357H928.85V238.149L925.61 240.084L925.05 239.186L929.05 236.713H930.13V249.357Z" fill="url(#paint59_linear_122_130)"/>
<path d="M966.07 8.58561C967.497 8.58561 968.577 9.19057 969.31 10.4005C970.057 11.5971 970.43 13.3389 970.43 15.6257C970.43 17.9126 970.057 19.661 969.31 20.8709C968.577 22.0808 967.497 22.6858 966.07 22.6858C964.657 22.6858 963.577 22.0808 962.83 20.8709C962.084 19.661 961.71 17.9126 961.71 15.6257C961.71 13.3522 962.084 11.6104 962.83 10.4005C963.577 9.19057 964.657 8.58561 966.07 8.58561ZM963.13 15.6257C963.13 17.2478 963.277 18.5176 963.57 19.435L968.01 10.5999C967.543 9.97502 966.897 9.66256 966.07 9.66256C965.15 9.66256 964.43 10.1545 963.91 11.1384C963.39 12.109 963.13 13.6048 963.13 15.6257ZM966.07 21.5889C967.003 21.5889 967.73 21.1036 968.25 20.133C968.77 19.1491 969.03 17.6467 969.03 15.6257C969.03 13.9106 968.863 12.581 968.53 11.637L964.09 20.5518C964.57 21.2432 965.23 21.5889 966.07 21.5889Z" fill="url(#paint60_linear_122_130)"/>
<path d="M967.27 44.2221H970.21V45.2792H962.59V44.2221H965.99V33.0138L962.75 34.9483L962.19 34.0509L966.19 31.5778H967.27V44.2221Z" fill="url(#paint61_linear_122_130)"/>
<path d="M966.07 54.1712C967.497 54.1712 968.577 54.7762 969.31 55.9861C970.057 57.1827 970.43 58.9245 970.43 61.2113C970.43 63.4982 970.057 65.2466 969.31 66.4565C968.577 67.6664 967.497 68.2714 966.07 68.2714C964.657 68.2714 963.577 67.6664 962.83 66.4565C962.084 65.2466 961.71 63.4982 961.71 61.2113C961.71 58.9378 962.084 57.196 962.83 55.9861C963.577 54.7762 964.657 54.1712 966.07 54.1712ZM963.13 61.2113C963.13 62.8334 963.277 64.1032 963.57 65.0206L968.01 56.1855C967.543 55.5606 966.897 55.2482 966.07 55.2482C965.15 55.2482 964.43 55.7401 963.91 56.724C963.39 57.6946 963.13 59.1904 963.13 61.2113ZM966.07 67.1745C967.003 67.1745 967.73 66.6892 968.25 65.7186C968.77 64.7347 969.03 63.2323 969.03 61.2113C969.03 59.4962 968.863 58.1666 968.53 57.2226L964.09 66.1374C964.57 66.8288 965.23 67.1745 966.07 67.1745Z" fill="url(#paint62_linear_122_130)"/>
<path d="M966.07 76.964C967.497 76.964 968.577 77.569 969.31 78.7789C970.057 79.9755 970.43 81.7173 970.43 84.0041C970.43 86.291 970.057 88.0394 969.31 89.2493C968.577 90.4593 967.497 91.0642 966.07 91.0642C964.657 91.0642 963.577 90.4593 962.83 89.2493C962.084 88.0394 961.71 86.291 961.71 84.0041C961.71 81.7306 962.084 79.9888 962.83 78.7789C963.577 77.569 964.657 76.964 966.07 76.964ZM963.13 84.0041C963.13 85.6262 963.277 86.896 963.57 87.8134L968.01 78.9783C967.543 78.3534 966.897 78.041 966.07 78.041C965.15 78.041 964.43 78.5329 963.91 79.5168C963.39 80.4874 963.13 81.9832 963.13 84.0041ZM966.07 89.9673C967.003 89.9673 967.73 89.482 968.25 88.5114C968.77 87.5275 969.03 86.0251 969.03 84.0041C969.03 82.289 968.863 80.9594 968.53 80.0154L964.09 88.9302C964.57 89.6216 965.23 89.9673 966.07 89.9673Z" fill="url(#paint63_linear_122_130)"/>
<path d="M967.27 112.601H970.21V113.658H962.59V112.601H965.99V101.392L962.75 103.327L962.19 102.429L966.19 99.9562H967.27V112.601Z" fill="url(#paint64_linear_122_130)"/>
<path d="M966.07 122.55C967.497 122.55 968.577 123.155 969.31 124.365C970.057 125.561 970.43 127.303 970.43 129.59C970.43 131.877 970.057 133.625 969.31 134.835C968.577 136.045 967.497 136.65 966.07 136.65C964.657 136.65 963.577 136.045 962.83 134.835C962.084 133.625 961.71 131.877 961.71 129.59C961.71 127.316 962.084 125.574 962.83 124.365C963.577 123.155 964.657 122.55 966.07 122.55ZM963.13 129.59C963.13 131.212 963.277 132.482 963.57 133.399L968.01 124.564C967.543 123.939 966.897 123.627 966.07 123.627C965.15 123.627 964.43 124.119 963.91 125.102C963.39 126.073 963.13 127.569 963.13 129.59ZM966.07 135.553C967.003 135.553 967.73 135.068 968.25 134.097C968.77 133.113 969.03 131.611 969.03 129.59C969.03 127.875 968.863 126.545 968.53 125.601L964.09 134.516C964.57 135.207 965.23 135.553 966.07 135.553Z" fill="url(#paint65_linear_122_130)"/>
<path d="M967.27 158.186H970.21V159.243H962.59V158.186H965.99V146.978L962.75 148.912L962.19 148.015L966.19 145.542H967.27V158.186Z" fill="url(#paint66_linear_122_130)"/>
<path d="M966.07 168.135C967.497 168.135 968.577 168.74 969.31 169.95C970.057 171.147 970.43 172.888 970.43 175.175C970.43 177.462 970.057 179.211 969.31 180.421C968.577 181.63 967.497 182.235 966.07 182.235C964.657 182.235 963.577 181.63 962.83 180.421C962.084 179.211 961.71 177.462 961.71 175.175C961.71 172.902 962.084 171.16 962.83 169.95C963.577 168.74 964.657 168.135 966.07 168.135ZM963.13 175.175C963.13 176.797 963.277 178.067 963.57 178.985L968.01 170.15C967.543 169.525 966.897 169.212 966.07 169.212C965.15 169.212 964.43 169.704 963.91 170.688C963.39 171.659 963.13 173.154 963.13 175.175ZM966.07 181.139C967.003 181.139 967.73 180.653 968.25 179.683C968.77 178.699 969.03 177.196 969.03 175.175C969.03 173.46 968.863 172.131 968.53 171.187L964.09 180.101C964.57 180.793 965.23 181.139 966.07 181.139Z" fill="url(#paint67_linear_122_130)"/>
<path d="M966.07 190.928C967.497 190.928 968.577 191.533 969.31 192.743C970.057 193.94 970.43 195.681 970.43 197.968C970.43 200.255 970.057 202.003 969.31 203.213C968.577 204.423 967.497 205.028 966.07 205.028C964.657 205.028 963.577 204.423 962.83 203.213C962.084 202.003 961.71 200.255 961.71 197.968C961.71 195.695 962.084 193.953 962.83 192.743C963.577 191.533 964.657 190.928 966.07 190.928ZM963.13 197.968C963.13 199.59 963.277 200.86 963.57 201.777L968.01 192.942C967.543 192.317 966.897 192.005 966.07 192.005C965.15 192.005 964.43 192.497 963.91 193.481C963.39 194.451 963.13 195.947 963.13 197.968ZM966.07 203.931C967.003 203.931 967.73 203.446 968.25 202.475C968.77 201.492 969.03 199.989 969.03 197.968C969.03 196.253 968.863 194.923 968.53 193.979L964.09 202.894C964.57 203.586 965.23 203.931 966.07 203.931Z" fill="url(#paint68_linear_122_130)"/>
<path d="M967.27 226.565H970.21V227.622H962.59V226.565H965.99V215.356L962.75 217.291L962.19 216.393L966.19 213.92H967.27V226.565Z" fill="url(#paint69_linear_122_130)"/>
<path d="M966.07 236.514C967.497 236.514 968.577 237.119 969.31 238.329C970.057 239.525 970.43 241.267 970.43 243.554C970.43 245.841 970.057 247.589 969.31 248.799C968.577 250.009 967.497 250.614 966.07 250.614C964.657 250.614 963.577 250.009 962.83 248.799C962.084 247.589 961.71 245.841 961.71 243.554C961.71 241.28 962.084 239.538 962.83 238.329C963.577 237.119 964.657 236.514 966.07 236.514ZM963.13 243.554C963.13 245.176 963.277 246.446 963.57 247.363L968.01 238.528C967.543 237.903 966.897 237.591 966.07 237.591C965.15 237.591 964.43 238.083 963.91 239.066C963.39 240.037 963.13 241.533 963.13 243.554ZM966.07 249.517C967.003 249.517 967.73 249.032 968.25 248.061C968.77 247.077 969.03 245.575 969.03 243.554C969.03 241.839 968.863 240.509 968.53 239.565L964.09 248.48C964.57 249.171 965.23 249.517 966.07 249.517Z" fill="url(#paint70_linear_122_130)"/>
<path d="M967.27 272.15H970.21V273.207H962.59V272.15H965.99V260.942L962.75 262.876L962.19 261.979L966.19 259.506H967.27V272.15Z" fill="url(#paint71_linear_122_130)"/>
<path d="M967.27 294.943H970.21V296H962.59V294.943H965.99V283.735L962.75 285.669L962.19 284.772L966.19 282.299H967.27V294.943Z" fill="url(#paint72_linear_122_130)"/>
<path d="M910.36 31.3784C911.786 31.3784 912.866 31.9834 913.599 33.1933C914.346 34.3899 914.719 36.1317 914.719 38.4185C914.719 40.7054 914.346 42.4538 913.599 43.6637C912.866 44.8736 911.786 45.4786 910.36 45.4786C908.946 45.4786 907.867 44.8736 907.12 43.6637C906.373 42.4538 906 40.7054 906 38.4185C906 36.145 906.373 34.4032 907.12 33.1933C907.867 31.9834 908.946 31.3784 910.36 31.3784ZM907.42 38.4185C907.42 40.0406 907.567 41.3104 907.86 42.2278L912.3 33.3927C911.833 32.7678 911.186 32.4554 910.36 32.4554C909.44 32.4554 908.72 32.9473 908.2 33.9312C907.68 34.9018 907.42 36.3976 907.42 38.4185ZM910.36 44.3817C911.293 44.3817 912.02 43.8964 912.54 42.9258C913.06 41.9419 913.319 40.4395 913.319 38.4185C913.319 36.7034 913.153 35.3738 912.82 34.4298L908.38 43.3446C908.86 44.036 909.52 44.3817 910.36 44.3817Z" fill="url(#paint73_linear_122_130)"/>
<path d="M910.36 54.1712C911.786 54.1712 912.866 54.7762 913.599 55.9861C914.346 57.1827 914.719 58.9245 914.719 61.2113C914.719 63.4982 914.346 65.2466 913.599 66.4565C912.866 67.6664 911.786 68.2714 910.36 68.2714C908.946 68.2714 907.867 67.6664 907.12 66.4565C906.373 65.2466 906 63.4982 906 61.2113C906 58.9378 906.373 57.196 907.12 55.9861C907.867 54.7762 908.946 54.1712 910.36 54.1712ZM907.42 61.2113C907.42 62.8334 907.567 64.1032 907.86 65.0206L912.3 56.1855C911.833 55.5606 911.186 55.2482 910.36 55.2482C909.44 55.2482 908.72 55.7401 908.2 56.724C907.68 57.6946 907.42 59.1904 907.42 61.2113ZM910.36 67.1745C911.293 67.1745 912.02 66.6892 912.54 65.7186C913.06 64.7347 913.319 63.2323 913.319 61.2113C913.319 59.4962 913.153 58.1666 912.82 57.2226L908.38 66.1374C908.86 66.8288 909.52 67.1745 910.36 67.1745Z" fill="url(#paint74_linear_122_130)"/>
<path d="M911.56 89.8078H914.499V90.8648H906.88V89.8078H910.28V78.5994L907.04 80.5339L906.48 79.6365L910.48 77.1635H911.56V89.8078Z" fill="url(#paint75_linear_122_130)"/>
<path d="M910.36 99.7568C911.786 99.7568 912.866 100.362 913.599 101.572C914.346 102.768 914.719 104.51 914.719 106.797C914.719 109.084 914.346 110.832 913.599 112.042C912.866 113.252 911.786 113.857 910.36 113.857C908.946 113.857 907.867 113.252 907.12 112.042C906.373 110.832 906 109.084 906 106.797C906 104.523 906.373 102.782 907.12 101.572C907.867 100.362 908.946 99.7568 910.36 99.7568ZM907.42 106.797C907.42 108.419 907.567 109.689 907.86 110.606L912.3 101.771C911.833 101.146 911.186 100.834 910.36 100.834C909.44 100.834 908.72 101.326 908.2 102.31C907.68 103.28 907.42 104.776 907.42 106.797ZM910.36 112.76C911.293 112.76 912.02 112.275 912.54 111.304C913.06 110.32 913.319 108.818 913.319 106.797C913.319 105.082 913.153 103.752 912.82 102.808L908.38 111.723C908.86 112.414 909.52 112.76 910.36 112.76Z" fill="url(#paint76_linear_122_130)"/>
<path d="M911.56 135.393H914.499V136.45H906.88V135.393H910.28V124.185L907.04 126.12L906.48 125.222L910.48 122.749H911.56V135.393Z" fill="url(#paint77_linear_122_130)"/>
<path d="M911.56 158.186H914.499V159.243H906.88V158.186H910.28V146.978L907.04 148.912L906.48 148.015L910.48 145.542H911.56V158.186Z" fill="url(#paint78_linear_122_130)"/>
<path d="M948.7 -1.36345H951.64V-0.306438H944.02V-1.36345H947.42V-12.5718L944.18 -10.6373L943.62 -11.5347L947.62 -14.0078H948.7V-1.36345Z" fill="url(#paint79_linear_122_130)"/>
<path d="M947.5 8.58561C948.927 8.58561 950.006 9.19057 950.74 10.4005C951.486 11.5971 951.86 13.3389 951.86 15.6257C951.86 17.9126 951.486 19.661 950.74 20.8709C950.006 22.0808 948.927 22.6858 947.5 22.6858C946.087 22.6858 945.007 22.0808 944.26 20.8709C943.514 19.661 943.14 17.9126 943.14 15.6257C943.14 13.3522 943.514 11.6104 944.26 10.4005C945.007 9.19057 946.087 8.58561 947.5 8.58561ZM944.56 15.6257C944.56 17.2478 944.707 18.5176 945 19.435L949.44 10.5999C948.973 9.97502 948.327 9.66256 947.5 9.66256C946.58 9.66256 945.86 10.1545 945.34 11.1384C944.82 12.109 944.56 13.6048 944.56 15.6257ZM947.5 21.5889C948.433 21.5889 949.16 21.1036 949.68 20.133C950.2 19.1491 950.46 17.6467 950.46 15.6257C950.46 13.9106 950.293 12.581 949.96 11.637L945.52 20.5518C946 21.2432 946.66 21.5889 947.5 21.5889Z" fill="url(#paint80_linear_122_130)"/>
<path d="M948.7 44.2221H951.64V45.2792H944.02V44.2221H947.42V33.0138L944.18 34.9483L943.62 34.0509L947.62 31.5778H948.7V44.2221Z" fill="url(#paint81_linear_122_130)"/>
<path d="M948.7 67.015H951.64V68.072H944.02V67.015H947.42V55.8066L944.18 57.7411L943.62 56.8437L947.62 54.3706H948.7V67.015Z" fill="url(#paint82_linear_122_130)"/>
<path d="M947.5 76.964C948.927 76.964 950.006 77.569 950.74 78.7789C951.486 79.9755 951.86 81.7173 951.86 84.0041C951.86 86.291 951.486 88.0394 950.74 89.2493C950.006 90.4593 948.927 91.0642 947.5 91.0642C946.087 91.0642 945.007 90.4593 944.26 89.2493C943.514 88.0394 943.14 86.291 943.14 84.0041C943.14 81.7306 943.514 79.9888 944.26 78.7789C945.007 77.569 946.087 76.964 947.5 76.964ZM944.56 84.0041C944.56 85.6262 944.707 86.896 945 87.8134L949.44 78.9783C948.973 78.3534 948.327 78.041 947.5 78.041C946.58 78.041 945.86 78.5329 945.34 79.5168C944.82 80.4874 944.56 81.9832 944.56 84.0041ZM947.5 89.9673C948.433 89.9673 949.16 89.482 949.68 88.5114C950.2 87.5275 950.46 86.0251 950.46 84.0041C950.46 82.289 950.293 80.9594 949.96 80.0154L945.52 88.9302C946 89.6216 946.66 89.9673 947.5 89.9673Z" fill="url(#paint83_linear_122_130)"/>
<path d="M948.7 112.601H951.64V113.658H944.02V112.601H947.42V101.392L944.18 103.327L943.62 102.429L947.62 99.9562H948.7V112.601Z" fill="url(#paint84_linear_122_130)"/>
<path d="M948.7 135.393H951.64V136.45H944.02V135.393H947.42V124.185L944.18 126.12L943.62 125.222L947.62 122.749H948.7V135.393Z" fill="url(#paint85_linear_122_130)"/>
<path d="M947.5 145.342C948.927 145.342 950.006 145.947 950.74 147.157C951.486 148.354 951.86 150.096 951.86 152.383C951.86 154.669 951.486 156.418 950.74 157.628C950.006 158.838 948.927 159.443 947.5 159.443C946.087 159.443 945.007 158.838 944.26 157.628C943.514 156.418 943.14 154.669 943.14 152.383C943.14 150.109 943.514 148.367 944.26 147.157C945.007 145.947 946.087 145.342 947.5 145.342ZM944.56 152.383C944.56 154.005 944.707 155.274 945 156.192L949.44 147.357C948.973 146.732 948.327 146.419 947.5 146.419C946.58 146.419 945.86 146.911 945.34 147.895C944.82 148.866 944.56 150.362 944.56 152.383ZM947.5 158.346C948.433 158.346 949.16 157.86 949.68 156.89C950.2 155.906 950.46 154.404 950.46 152.383C950.46 150.667 950.293 149.338 949.96 148.394L945.52 157.309C946 158 946.66 158.346 947.5 158.346Z" fill="url(#paint86_linear_122_130)"/>
<path d="M948.7 180.979H951.64V182.036H944.02V180.979H947.42V169.771L944.18 171.705L943.62 170.808L947.62 168.335H948.7V180.979Z" fill="url(#paint87_linear_122_130)"/>
<path d="M947.5 190.928C948.927 190.928 950.006 191.533 950.74 192.743C951.486 193.94 951.86 195.681 951.86 197.968C951.86 200.255 951.486 202.003 950.74 203.213C950.006 204.423 948.927 205.028 947.5 205.028C946.087 205.028 945.007 204.423 944.26 203.213C943.514 202.003 943.14 200.255 943.14 197.968C943.14 195.695 943.514 193.953 944.26 192.743C945.007 191.533 946.087 190.928 947.5 190.928ZM944.56 197.968C944.56 199.59 944.707 200.86 945 201.777L949.44 192.942C948.973 192.317 948.327 192.005 947.5 192.005C946.58 192.005 945.86 192.497 945.34 193.481C944.82 194.451 944.56 195.947 944.56 197.968ZM947.5 203.931C948.433 203.931 949.16 203.446 949.68 202.475C950.2 201.492 950.46 199.989 950.46 197.968C950.46 196.253 950.293 194.923 949.96 193.979L945.52 202.894C946 203.586 946.66 203.931 947.5 203.931Z" fill="url(#paint88_linear_122_130)"/>
<path d="M984.64 -14.2072C986.067 -14.2072 987.147 -13.6022 987.88 -12.3923C988.627 -11.1957 989 -9.45395 989 -7.16707C989 -4.88019 988.627 -3.13179 987.88 -1.92188C987.147 -0.711958 986.067 -0.106999 984.64 -0.106999C983.227 -0.106999 982.147 -0.711958 981.401 -1.92188C980.654 -3.13179 980.281 -4.88019 980.281 -7.16707C980.281 -9.44065 980.654 -11.1824 981.401 -12.3923C982.147 -13.6022 983.227 -14.2072 984.64 -14.2072ZM981.7 -7.16707C981.7 -5.54498 981.847 -4.27523 982.14 -3.35782L986.58 -12.1929C986.114 -12.8178 985.467 -13.1302 984.64 -13.1302C983.72 -13.1302 983 -12.6383 982.48 -11.6544C981.96 -10.6838 981.7 -9.18803 981.7 -7.16707ZM984.64 -1.2039C985.574 -1.2039 986.3 -1.6892 986.82 -2.65979C987.34 -3.64368 987.6 -5.14611 987.6 -7.16707C987.6 -8.88223 987.433 -10.2118 987.1 -11.1558L982.66 -2.24098C983.14 -1.5496 983.8 -1.2039 984.64 -1.2039Z" fill="url(#paint89_linear_122_130)"/>
<path d="M985.84 21.4293H988.78V22.4864H981.161V21.4293H984.56V10.221L981.321 12.1555L980.761 11.2581L984.76 8.78504H985.84V21.4293Z" fill="url(#paint90_linear_122_130)"/>
<path d="M985.84 44.2221H988.78V45.2792H981.161V44.2221H984.56V33.0138L981.321 34.9483L980.761 34.0509L984.76 31.5778H985.84V44.2221Z" fill="url(#paint91_linear_122_130)"/>
<path d="M984.64 54.1712C986.067 54.1712 987.147 54.7762 987.88 55.9861C988.627 57.1827 989 58.9245 989 61.2113C989 63.4982 988.627 65.2466 987.88 66.4565C987.147 67.6664 986.067 68.2714 984.64 68.2714C983.227 68.2714 982.147 67.6664 981.401 66.4565C980.654 65.2466 980.281 63.4982 980.281 61.2113C980.281 58.9378 980.654 57.196 981.401 55.9861C982.147 54.7762 983.227 54.1712 984.64 54.1712ZM981.7 61.2113C981.7 62.8334 981.847 64.1032 982.14 65.0206L986.58 56.1855C986.114 55.5606 985.467 55.2482 984.64 55.2482C983.72 55.2482 983 55.7401 982.48 56.724C981.96 57.6946 981.7 59.1904 981.7 61.2113ZM984.64 67.1745C985.574 67.1745 986.3 66.6892 986.82 65.7186C987.34 64.7347 987.6 63.2323 987.6 61.2113C987.6 59.4962 987.433 58.1666 987.1 57.2226L982.66 66.1374C983.14 66.8288 983.8 67.1745 984.64 67.1745Z" fill="url(#paint92_linear_122_130)"/>
<path d="M984.64 76.964C986.067 76.964 987.147 77.569 987.88 78.7789C988.627 79.9755 989 81.7173 989 84.0041C989 86.291 988.627 88.0394 987.88 89.2493C987.147 90.4593 986.067 91.0642 984.64 91.0642C983.227 91.0642 982.147 90.4593 981.401 89.2493C980.654 88.0394 980.281 86.291 980.281 84.0041C980.281 81.7306 980.654 79.9888 981.401 78.7789C982.147 77.569 983.227 76.964 984.64 76.964ZM981.7 84.0041C981.7 85.6262 981.847 86.896 982.14 87.8134L986.58 78.9783C986.114 78.3534 985.467 78.041 984.64 78.041C983.72 78.041 983 78.5329 982.48 79.5168C981.96 80.4874 981.7 81.9832 981.7 84.0041ZM984.64 89.9673C985.574 89.9673 986.3 89.482 986.82 88.5114C987.34 87.5275 987.6 86.0251 987.6 84.0041C987.6 82.289 987.433 80.9594 987.1 80.0154L982.66 88.9302C983.14 89.6216 983.8 89.9673 984.64 89.9673Z" fill="url(#paint93_linear_122_130)"/>
</g>
</g>
<defs>
<filter id="filter0_f_122_130" x="-549.19" y="-723.19" width="2141.38" height="1500.38" filterUnits="userSpaceOnUse" color-interpolation-filters="sRGB">
<feFlood flood-opacity="0" result="BackgroundImageFix"/>
<feBlend mode="normal" in="SourceGraphic" in2="BackgroundImageFix" result="shape"/>
<feGaussianBlur stdDeviation="200.095" result="effect1_foregroundBlur_122_130"/>
</filter>
<linearGradient id="paint0_linear_122_130" x1="61.5" y1="263" x2="61.5" y2="574.381" gradientUnits="userSpaceOnUse">
<stop stop-color="#F7DD43"/>
<stop offset="1" stop-color="#F7DD43" stop-opacity="0"/>
</linearGradient>
<linearGradient id="paint1_linear_122_130" x1="61.5" y1="263" x2="61.5" y2="574.381" gradientUnits="userSpaceOnUse">
<stop stop-color="#F7DD43"/>
<stop offset="1" stop-color="#F7DD43" stop-opacity="0"/>
</linearGradient>
<linearGradient id="paint2_linear_122_130" x1="61.5" y1="263" x2="61.5" y2="574.381" gradientUnits="userSpaceOnUse">
<stop stop-color="#F7DD43"/>
<stop offset="1" stop-color="#F7DD43" stop-opacity="0"/>
</linearGradient>
<linearGradient id="paint3_linear_122_130" x1="61.5" y1="263" x2="61.5" y2="574.381" gradientUnits="userSpaceOnUse">
<stop stop-color="#F7DD43"/>
<stop offset="1" stop-color="#F7DD43" stop-opacity="0"/>
</linearGradient>
<linearGradient id="paint4_linear_122_130" x1="61.5" y1="263" x2="61.5" y2="574.381" gradientUnits="userSpaceOnUse">
<stop stop-color="#F7DD43"/>
<stop offset="1" stop-color="#F7DD43" stop-opacity="0"/>
</linearGradient>
<linearGradient id="paint5_linear_122_130" x1="61.5" y1="263" x2="61.5" y2="574.381" gradientUnits="userSpaceOnUse">
<stop stop-color="#F7DD43"/>
<stop offset="1" stop-color="#F7DD43" stop-opacity="0"/>
</linearGradient>
<linearGradient id="paint6_linear_122_130" x1="61.5" y1="263" x2="61.5" y2="574.381" gradientUnits="userSpaceOnUse">
<stop stop-color="#F7DD43"/>
<stop offset="1" stop-color="#F7DD43" stop-opacity="0"/>
</linearGradient>
<linearGradient id="paint7_linear_122_130" x1="61.5" y1="263" x2="61.5" y2="574.381" gradientUnits="userSpaceOnUse">
<stop stop-color="#F7DD43"/>
<stop offset="1" stop-color="#F7DD43" stop-opacity="0"/>
</linearGradient>
<linearGradient id="paint8_linear_122_130" x1="61.5" y1="263" x2="61.5" y2="574.381" gradientUnits="userSpaceOnUse">
<stop stop-color="#F7DD43"/>
<stop offset="1" stop-color="#F7DD43" stop-opacity="0"/>
</linearGradient>
<linearGradient id="paint9_linear_122_130" x1="61.5" y1="263" x2="61.5" y2="574.381" gradientUnits="userSpaceOnUse">
<stop stop-color="#F7DD43"/>
<stop offset="1" stop-color="#F7DD43" stop-opacity="0"/>
</linearGradient>
<linearGradient id="paint10_linear_122_130" x1="61.5" y1="263" x2="61.5" y2="574.381" gradientUnits="userSpaceOnUse">
<stop stop-color="#F7DD43"/>
<stop offset="1" stop-color="#F7DD43" stop-opacity="0"/>
</linearGradient>
<linearGradient id="paint11_linear_122_130" x1="61.5" y1="263" x2="61.5" y2="574.381" gradientUnits="userSpaceOnUse">
<stop stop-color="#F7DD43"/>
<stop offset="1" stop-color="#F7DD43" stop-opacity="0"/>
</linearGradient>
<linearGradient id="paint12_linear_122_130" x1="61.5" y1="263" x2="61.5" y2="574.381" gradientUnits="userSpaceOnUse">
<stop stop-color="#F7DD43"/>
<stop offset="1" stop-color="#F7DD43" stop-opacity="0"/>
</linearGradient>
<linearGradient id="paint13_linear_122_130" x1="61.5" y1="263" x2="61.5" y2="574.381" gradientUnits="userSpaceOnUse">
<stop stop-color="#F7DD43"/>
<stop offset="1" stop-color="#F7DD43" stop-opacity="0"/>
</linearGradient>
<linearGradient id="paint14_linear_122_130" x1="61.5" y1="263" x2="61.5" y2="574.381" gradientUnits="userSpaceOnUse">
<stop stop-color="#F7DD43"/>
<stop offset="1" stop-color="#F7DD43" stop-opacity="0"/>
</linearGradient>
<linearGradient id="paint15_linear_122_130" x1="61.5" y1="263" x2="61.5" y2="574.381" gradientUnits="userSpaceOnUse">
<stop stop-color="#F7DD43"/>
<stop offset="1" stop-color="#F7DD43" stop-opacity="0"/>
</linearGradient>
<linearGradient id="paint16_linear_122_130" x1="61.5" y1="263" x2="61.5" y2="574.381" gradientUnits="userSpaceOnUse">
<stop stop-color="#F7DD43"/>
<stop offset="1" stop-color="#F7DD43" stop-opacity="0"/>
</linearGradient>
<linearGradient id="paint17_linear_122_130" x1="61.5" y1="263" x2="61.5" y2="574.381" gradientUnits="userSpaceOnUse">
<stop stop-color="#F7DD43"/>
<stop offset="1" stop-color="#F7DD43" stop-opacity="0"/>
</linearGradient>
<linearGradient id="paint18_linear_122_130" x1="61.5" y1="263" x2="61.5" y2="574.381" gradientUnits="userSpaceOnUse">
<stop stop-color="#F7DD43"/>
<stop offset="1" stop-color="#F7DD43" stop-opacity="0"/>
</linearGradient>
<linearGradient id="paint19_linear_122_130" x1="61.5" y1="263" x2="61.5" y2="574.381" gradientUnits="userSpaceOnUse">
<stop stop-color="#F7DD43"/>
<stop offset="1" stop-color="#F7DD43" stop-opacity="0"/>
</linearGradient>
<linearGradient id="paint20_linear_122_130" x1="61.5" y1="263" x2="61.5" y2="574.381" gradientUnits="userSpaceOnUse">
<stop stop-color="#F7DD43"/>
<stop offset="1" stop-color="#F7DD43" stop-opacity="0"/>
</linearGradient>
<linearGradient id="paint21_linear_122_130" x1="61.5" y1="263" x2="61.5" y2="574.381" gradientUnits="userSpaceOnUse">
<stop stop-color="#F7DD43"/>
<stop offset="1" stop-color="#F7DD43" stop-opacity="0"/>
</linearGradient>
<linearGradient id="paint22_linear_122_130" x1="61.5" y1="263" x2="61.5" y2="574.381" gradientUnits="userSpaceOnUse">
<stop stop-color="#F7DD43"/>
<stop offset="1" stop-color="#F7DD43" stop-opacity="0"/>
</linearGradient>
<linearGradient id="paint23_linear_122_130" x1="61.5" y1="263" x2="61.5" y2="574.381" gradientUnits="userSpaceOnUse">
<stop stop-color="#F7DD43"/>
<stop offset="1" stop-color="#F7DD43" stop-opacity="0"/>
</linearGradient>
<linearGradient id="paint24_linear_122_130" x1="61.5" y1="263" x2="61.5" y2="574.381" gradientUnits="userSpaceOnUse">
<stop stop-color="#F7DD43"/>
<stop offset="1" stop-color="#F7DD43" stop-opacity="0"/>
</linearGradient>
<linearGradient id="paint25_linear_122_130" x1="61.5" y1="263" x2="61.5" y2="574.381" gradientUnits="userSpaceOnUse">
<stop stop-color="#F7DD43"/>
<stop offset="1" stop-color="#F7DD43" stop-opacity="0"/>
</linearGradient>
<linearGradient id="paint26_linear_122_130" x1="61.5" y1="263" x2="61.5" y2="574.381" gradientUnits="userSpaceOnUse">
<stop stop-color="#F7DD43"/>
<stop offset="1" stop-color="#F7DD43" stop-opacity="0"/>
</linearGradient>
<linearGradient id="paint27_linear_122_130" x1="61.5" y1="263" x2="61.5" y2="574.381" gradientUnits="userSpaceOnUse">
<stop stop-color="#F7DD43"/>
<stop offset="1" stop-color="#F7DD43" stop-opacity="0"/>
</linearGradient>
<linearGradient id="paint28_linear_122_130" x1="61.5" y1="263" x2="61.5" y2="574.381" gradientUnits="userSpaceOnUse">
<stop stop-color="#F7DD43"/>
<stop offset="1" stop-color="#F7DD43" stop-opacity="0"/>
</linearGradient>
<linearGradient id="paint29_linear_122_130" x1="61.5" y1="263" x2="61.5" y2="574.381" gradientUnits="userSpaceOnUse">
<stop stop-color="#F7DD43"/>
<stop offset="1" stop-color="#F7DD43" stop-opacity="0"/>
</linearGradient>
<linearGradient id="paint30_linear_122_130" x1="61.5" y1="263" x2="61.5" y2="574.381" gradientUnits="userSpaceOnUse">
<stop stop-color="#F7DD43"/>
<stop offset="1" stop-color="#F7DD43" stop-opacity="0"/>
</linearGradient>
<linearGradient id="paint31_linear_122_130" x1="61.5" y1="263" x2="61.5" y2="574.381" gradientUnits="userSpaceOnUse">
<stop stop-color="#F7DD43"/>
<stop offset="1" stop-color="#F7DD43" stop-opacity="0"/>
</linearGradient>
<linearGradient id="paint32_linear_122_130" x1="61.5" y1="263" x2="61.5" y2="574.381" gradientUnits="userSpaceOnUse">
<stop stop-color="#F7DD43"/>
<stop offset="1" stop-color="#F7DD43" stop-opacity="0"/>
</linearGradient>
<linearGradient id="paint33_linear_122_130" x1="61.5" y1="263" x2="61.5" y2="574.381" gradientUnits="userSpaceOnUse">
<stop stop-color="#F7DD43"/>
<stop offset="1" stop-color="#F7DD43" stop-opacity="0"/>
</linearGradient>
<linearGradient id="paint34_linear_122_130" x1="61.5" y1="263" x2="61.5" y2="574.381" gradientUnits="userSpaceOnUse">
<stop stop-color="#F7DD43"/>
<stop offset="1" stop-color="#F7DD43" stop-opacity="0"/>
</linearGradient>
<linearGradient id="paint35_linear_122_130" x1="61.5" y1="263" x2="61.5" y2="574.381" gradientUnits="userSpaceOnUse">
<stop stop-color="#F7DD43"/>
<stop offset="1" stop-color="#F7DD43" stop-opacity="0"/>
</linearGradient>
<linearGradient id="paint36_linear_122_130" x1="61.5" y1="263" x2="61.5" y2="574.381" gradientUnits="userSpaceOnUse">
<stop stop-color="#F7DD43"/>
<stop offset="1" stop-color="#F7DD43" stop-opacity="0"/>
</linearGradient>
<linearGradient id="paint37_linear_122_130" x1="61.5" y1="263" x2="61.5" y2="574.381" gradientUnits="userSpaceOnUse">
<stop stop-color="#F7DD43"/>
<stop offset="1" stop-color="#F7DD43" stop-opacity="0"/>
</linearGradient>
<linearGradient id="paint38_linear_122_130" x1="61.5" y1="263" x2="61.5" y2="574.381" gradientUnits="userSpaceOnUse">
<stop stop-color="#F7DD43"/>
<stop offset="1" stop-color="#F7DD43" stop-opacity="0"/>
</linearGradient>
<linearGradient id="paint39_linear_122_130" x1="61.5" y1="263" x2="61.5" y2="574.381" gradientUnits="userSpaceOnUse">
<stop stop-color="#F7DD43"/>
<stop offset="1" stop-color="#F7DD43" stop-opacity="0"/>
</linearGradient>
<linearGradient id="paint40_linear_122_130" x1="61.5" y1="263" x2="61.5" y2="574.381" gradientUnits="userSpaceOnUse">
<stop stop-color="#F7DD43"/>
<stop offset="1" stop-color="#F7DD43" stop-opacity="0"/>
</linearGradient>
<linearGradient id="paint41_linear_122_130" x1="61.5" y1="263" x2="61.5" y2="574.381" gradientUnits="userSpaceOnUse">
<stop stop-color="#F7DD43"/>
<stop offset="1" stop-color="#F7DD43" stop-opacity="0"/>
</linearGradient>
<linearGradient id="paint42_linear_122_130" x1="61.5" y1="263" x2="61.5" y2="574.381" gradientUnits="userSpaceOnUse">
<stop stop-color="#F7DD43"/>
<stop offset="1" stop-color="#F7DD43" stop-opacity="0"/>
</linearGradient>
<linearGradient id="paint43_linear_122_130" x1="61.5" y1="263" x2="61.5" y2="574.381" gradientUnits="userSpaceOnUse">
<stop stop-color="#F7DD43"/>
<stop offset="1" stop-color="#F7DD43" stop-opacity="0"/>
</linearGradient>
<linearGradient id="paint44_linear_122_130" x1="61.5" y1="263" x2="61.5" y2="574.381" gradientUnits="userSpaceOnUse">
<stop stop-color="#F7DD43"/>
<stop offset="1" stop-color="#F7DD43" stop-opacity="0"/>
</linearGradient>
<linearGradient id="paint45_linear_122_130" x1="61.5" y1="263" x2="61.5" y2="574.381" gradientUnits="userSpaceOnUse">
<stop stop-color="#F7DD43"/>
<stop offset="1" stop-color="#F7DD43" stop-opacity="0"/>
</linearGradient>
<linearGradient id="paint46_linear_122_130" x1="61.5" y1="263" x2="61.5" y2="574.381" gradientUnits="userSpaceOnUse">
<stop stop-color="#F7DD43"/>
<stop offset="1" stop-color="#F7DD43" stop-opacity="0"/>
</linearGradient>
<linearGradient id="paint47_linear_122_130" x1="947.5" y1="-37" x2="947.5" y2="261.818" gradientUnits="userSpaceOnUse">
<stop stop-color="#F7DD43"/>
<stop offset="1" stop-color="#F7DD43" stop-opacity="0"/>
</linearGradient>
<linearGradient id="paint48_linear_122_130" x1="947.5" y1="-37" x2="947.5" y2="261.818" gradientUnits="userSpaceOnUse">
<stop stop-color="#F7DD43"/>
<stop offset="1" stop-color="#F7DD43" stop-opacity="0"/>
</linearGradient>
<linearGradient id="paint49_linear_122_130" x1="947.5" y1="-37" x2="947.5" y2="261.818" gradientUnits="userSpaceOnUse">
<stop stop-color="#F7DD43"/>
<stop offset="1" stop-color="#F7DD43" stop-opacity="0"/>
</linearGradient>
<linearGradient id="paint50_linear_122_130" x1="947.5" y1="-37" x2="947.5" y2="261.818" gradientUnits="userSpaceOnUse">
<stop stop-color="#F7DD43"/>
<stop offset="1" stop-color="#F7DD43" stop-opacity="0"/>
</linearGradient>
<linearGradient id="paint51_linear_122_130" x1="947.5" y1="-37" x2="947.5" y2="261.818" gradientUnits="userSpaceOnUse">
<stop stop-color="#F7DD43"/>
<stop offset="1" stop-color="#F7DD43" stop-opacity="0"/>
</linearGradient>
<linearGradient id="paint52_linear_122_130" x1="947.5" y1="-37" x2="947.5" y2="261.818" gradientUnits="userSpaceOnUse">
<stop stop-color="#F7DD43"/>
<stop offset="1" stop-color="#F7DD43" stop-opacity="0"/>
</linearGradient>
<linearGradient id="paint53_linear_122_130" x1="947.5" y1="-37" x2="947.5" y2="261.818" gradientUnits="userSpaceOnUse">
<stop stop-color="#F7DD43"/>
<stop offset="1" stop-color="#F7DD43" stop-opacity="0"/>
</linearGradient>
<linearGradient id="paint54_linear_122_130" x1="947.5" y1="-37" x2="947.5" y2="261.818" gradientUnits="userSpaceOnUse">
<stop stop-color="#F7DD43"/>
<stop offset="1" stop-color="#F7DD43" stop-opacity="0"/>
</linearGradient>
<linearGradient id="paint55_linear_122_130" x1="947.5" y1="-37" x2="947.5" y2="261.818" gradientUnits="userSpaceOnUse">
<stop stop-color="#F7DD43"/>
<stop offset="1" stop-color="#F7DD43" stop-opacity="0"/>
</linearGradient>
<linearGradient id="paint56_linear_122_130" x1="947.5" y1="-37" x2="947.5" y2="261.818" gradientUnits="userSpaceOnUse">
<stop stop-color="#F7DD43"/>
<stop offset="1" stop-color="#F7DD43" stop-opacity="0"/>
</linearGradient>
<linearGradient id="paint57_linear_122_130" x1="947.5" y1="-37" x2="947.5" y2="261.818" gradientUnits="userSpaceOnUse">
<stop stop-color="#F7DD43"/>
<stop offset="1" stop-color="#F7DD43" stop-opacity="0"/>
</linearGradient>
<linearGradient id="paint58_linear_122_130" x1="947.5" y1="-37" x2="947.5" y2="261.818" gradientUnits="userSpaceOnUse">
<stop stop-color="#F7DD43"/>
<stop offset="1" stop-color="#F7DD43" stop-opacity="0"/>
</linearGradient>
<linearGradient id="paint59_linear_122_130" x1="947.5" y1="-37" x2="947.5" y2="261.818" gradientUnits="userSpaceOnUse">
<stop stop-color="#F7DD43"/>
<stop offset="1" stop-color="#F7DD43" stop-opacity="0"/>
</linearGradient>
<linearGradient id="paint60_linear_122_130" x1="947.5" y1="-37" x2="947.5" y2="261.818" gradientUnits="userSpaceOnUse">
<stop stop-color="#F7DD43"/>
<stop offset="1" stop-color="#F7DD43" stop-opacity="0"/>
</linearGradient>
<linearGradient id="paint61_linear_122_130" x1="947.5" y1="-37" x2="947.5" y2="261.818" gradientUnits="userSpaceOnUse">
<stop stop-color="#F7DD43"/>
<stop offset="1" stop-color="#F7DD43" stop-opacity="0"/>
</linearGradient>
<linearGradient id="paint62_linear_122_130" x1="947.5" y1="-37" x2="947.5" y2="261.818" gradientUnits="userSpaceOnUse">
<stop stop-color="#F7DD43"/>
<stop offset="1" stop-color="#F7DD43" stop-opacity="0"/>
</linearGradient>
<linearGradient id="paint63_linear_122_130" x1="947.5" y1="-37" x2="947.5" y2="261.818" gradientUnits="userSpaceOnUse">
<stop stop-color="#F7DD43"/>
<stop offset="1" stop-color="#F7DD43" stop-opacity="0"/>
</linearGradient>
<linearGradient id="paint64_linear_122_130" x1="947.5" y1="-37" x2="947.5" y2="261.818" gradientUnits="userSpaceOnUse">
<stop stop-color="#F7DD43"/>
<stop offset="1" stop-color="#F7DD43" stop-opacity="0"/>
</linearGradient>
<linearGradient id="paint65_linear_122_130" x1="947.5" y1="-37" x2="947.5" y2="261.818" gradientUnits="userSpaceOnUse">
<stop stop-color="#F7DD43"/>
<stop offset="1" stop-color="#F7DD43" stop-opacity="0"/>
</linearGradient>
<linearGradient id="paint66_linear_122_130" x1="947.5" y1="-37" x2="947.5" y2="261.818" gradientUnits="userSpaceOnUse">
<stop stop-color="#F7DD43"/>
<stop offset="1" stop-color="#F7DD43" stop-opacity="0"/>
</linearGradient>
<linearGradient id="paint67_linear_122_130" x1="947.5" y1="-37" x2="947.5" y2="261.818" gradientUnits="userSpaceOnUse">
<stop stop-color="#F7DD43"/>
<stop offset="1" stop-color="#F7DD43" stop-opacity="0"/>
</linearGradient>
<linearGradient id="paint68_linear_122_130" x1="947.5" y1="-37" x2="947.5" y2="261.818" gradientUnits="userSpaceOnUse">
<stop stop-color="#F7DD43"/>
<stop offset="1" stop-color="#F7DD43" stop-opacity="0"/>
</linearGradient>
<linearGradient id="paint69_linear_122_130" x1="947.5" y1="-37" x2="947.5" y2="261.818" gradientUnits="userSpaceOnUse">
<stop stop-color="#F7DD43"/>
<stop offset="1" stop-color="#F7DD43" stop-opacity="0"/>
</linearGradient>
<linearGradient id="paint70_linear_122_130" x1="947.5" y1="-37" x2="947.5" y2="261.818" gradientUnits="userSpaceOnUse">
<stop stop-color="#F7DD43"/>
<stop offset="1" stop-color="#F7DD43" stop-opacity="0"/>
</linearGradient>
<linearGradient id="paint71_linear_122_130" x1="947.5" y1="-37" x2="947.5" y2="261.818" gradientUnits="userSpaceOnUse">
<stop stop-color="#F7DD43"/>
<stop offset="1" stop-color="#F7DD43" stop-opacity="0"/>
</linearGradient>
<linearGradient id="paint72_linear_122_130" x1="947.5" y1="-37" x2="947.5" y2="261.818" gradientUnits="userSpaceOnUse">
<stop stop-color="#F7DD43"/>
<stop offset="1" stop-color="#F7DD43" stop-opacity="0"/>
</linearGradient>
<linearGradient id="paint73_linear_122_130" x1="947.5" y1="-37" x2="947.5" y2="261.818" gradientUnits="userSpaceOnUse">
<stop stop-color="#F7DD43"/>
<stop offset="1" stop-color="#F7DD43" stop-opacity="0"/>
</linearGradient>
<linearGradient id="paint74_linear_122_130" x1="947.5" y1="-37" x2="947.5" y2="261.818" gradientUnits="userSpaceOnUse">
<stop stop-color="#F7DD43"/>
<stop offset="1" stop-color="#F7DD43" stop-opacity="0"/>
</linearGradient>
<linearGradient id="paint75_linear_122_130" x1="947.5" y1="-37" x2="947.5" y2="261.818" gradientUnits="userSpaceOnUse">
<stop stop-color="#F7DD43"/>
<stop offset="1" stop-color="#F7DD43" stop-opacity="0"/>
</linearGradient>
<linearGradient id="paint76_linear_122_130" x1="947.5" y1="-37" x2="947.5" y2="261.818" gradientUnits="userSpaceOnUse">
<stop stop-color="#F7DD43"/>
<stop offset="1" stop-color="#F7DD43" stop-opacity="0"/>
</linearGradient>
<linearGradient id="paint77_linear_122_130" x1="947.5" y1="-37" x2="947.5" y2="261.818" gradientUnits="userSpaceOnUse">
<stop stop-color="#F7DD43"/>
<stop offset="1" stop-color="#F7DD43" stop-opacity="0"/>
</linearGradient>
<linearGradient id="paint78_linear_122_130" x1="947.5" y1="-37" x2="947.5" y2="261.818" gradientUnits="userSpaceOnUse">
<stop stop-color="#F7DD43"/>
<stop offset="1" stop-color="#F7DD43" stop-opacity="0"/>
</linearGradient>
<linearGradient id="paint79_linear_122_130" x1="947.5" y1="-37" x2="947.5" y2="261.818" gradientUnits="userSpaceOnUse">
<stop stop-color="#F7DD43"/>
<stop offset="1" stop-color="#F7DD43" stop-opacity="0"/>
</linearGradient>
<linearGradient id="paint80_linear_122_130" x1="947.5" y1="-37" x2="947.5" y2="261.818" gradientUnits="userSpaceOnUse">
<stop stop-color="#F7DD43"/>
<stop offset="1" stop-color="#F7DD43" stop-opacity="0"/>
</linearGradient>
<linearGradient id="paint81_linear_122_130" x1="947.5" y1="-37" x2="947.5" y2="261.818" gradientUnits="userSpaceOnUse">
<stop stop-color="#F7DD43"/>
<stop offset="1" stop-color="#F7DD43" stop-opacity="0"/>
</linearGradient>
<linearGradient id="paint82_linear_122_130" x1="947.5" y1="-37" x2="947.5" y2="261.818" gradientUnits="userSpaceOnUse">
<stop stop-color="#F7DD43"/>
<stop offset="1" stop-color="#F7DD43" stop-opacity="0"/>
</linearGradient>
<linearGradient id="paint83_linear_122_130" x1="947.5" y1="-37" x2="947.5" y2="261.818" gradientUnits="userSpaceOnUse">
<stop stop-color="#F7DD43"/>
<stop offset="1" stop-color="#F7DD43" stop-opacity="0"/>
</linearGradient>
<linearGradient id="paint84_linear_122_130" x1="947.5" y1="-37" x2="947.5" y2="261.818" gradientUnits="userSpaceOnUse">
<stop stop-color="#F7DD43"/>
<stop offset="1" stop-color="#F7DD43" stop-opacity="0"/>
</linearGradient>
<linearGradient id="paint85_linear_122_130" x1="947.5" y1="-37" x2="947.5" y2="261.818" gradientUnits="userSpaceOnUse">
<stop stop-color="#F7DD43"/>
<stop offset="1" stop-color="#F7DD43" stop-opacity="0"/>
</linearGradient>
<linearGradient id="paint86_linear_122_130" x1="947.5" y1="-37" x2="947.5" y2="261.818" gradientUnits="userSpaceOnUse">
<stop stop-color="#F7DD43"/>
<stop offset="1" stop-color="#F7DD43" stop-opacity="0"/>
</linearGradient>
<linearGradient id="paint87_linear_122_130" x1="947.5" y1="-37" x2="947.5" y2="261.818" gradientUnits="userSpaceOnUse">
<stop stop-color="#F7DD43"/>
<stop offset="1" stop-color="#F7DD43" stop-opacity="0"/>
</linearGradient>
<linearGradient id="paint88_linear_122_130" x1="947.5" y1="-37" x2="947.5" y2="261.818" gradientUnits="userSpaceOnUse">
<stop stop-color="#F7DD43"/>
<stop offset="1" stop-color="#F7DD43" stop-opacity="0"/>
</linearGradient>
<linearGradient id="paint89_linear_122_130" x1="947.5" y1="-37" x2="947.5" y2="261.818" gradientUnits="userSpaceOnUse">
<stop stop-color="#F7DD43"/>
<stop offset="1" stop-color="#F7DD43" stop-opacity="0"/>
</linearGradient>
<linearGradient id="paint90_linear_122_130" x1="947.5" y1="-37" x2="947.5" y2="261.818" gradientUnits="userSpaceOnUse">
<stop stop-color="#F7DD43"/>
<stop offset="1" stop-color="#F7DD43" stop-opacity="0"/>
</linearGradient>
<linearGradient id="paint91_linear_122_130" x1="947.5" y1="-37" x2="947.5" y2="261.818" gradientUnits="userSpaceOnUse">
<stop stop-color="#F7DD43"/>
<stop offset="1" stop-color="#F7DD43" stop-opacity="0"/>
</linearGradient>
<linearGradient id="paint92_linear_122_130" x1="947.5" y1="-37" x2="947.5" y2="261.818" gradientUnits="userSpaceOnUse">
<stop stop-color="#F7DD43"/>
<stop offset="1" stop-color="#F7DD43" stop-opacity="0"/>
</linearGradient>
<linearGradient id="paint93_linear_122_130" x1="947.5" y1="-37" x2="947.5" y2="261.818" gradientUnits="userSpaceOnUse">
<stop stop-color="#F7DD43"/>
<stop offset="1" stop-color="#F7DD43" stop-opacity="0"/>
</linearGradient>
<clipPath id="clip0_122_130">
<rect width="1024" height="753" fill="white"/>
</clipPath>
</defs>
</svg>
